<?xml version="1.0" encoding="iso-8859-1"?>
<!-- Uploaded to: SVG Repo, www.svgrepo.com, Generator: SVG Repo Mixer Tools -->
<svg height="800px" width="800px" version="1.1" id="Layer_1" xmlns="http://www.w3.org/2000/svg" xmlns:xlink="http://www.w3.org/1999/xlink" 
	 viewBox="0 0 512 512" xml:space="preserve">
<path style="fill:#DFDFE0;" d="M241.847,424.615c-29.64,63.494-105.135,90.937-168.622,61.289l0,0
	c-63.486-29.64-90.92-105.127-61.289-168.62L119.268,87.381c29.64-63.494,105.144-90.929,168.628-61.289l0,0
	c63.486,29.64,90.921,105.127,61.281,168.622l-7.953,17.041L241.847,424.615z"/>
<path style="fill:#CECED1;" d="M241.847,424.615c-29.64,63.494-105.135,90.937-168.622,61.289l0,0L287.898,26.092l0,0
	c63.486,29.64,90.921,105.127,61.281,168.622l-7.953,17.041L241.847,424.615z"/>
<path style="fill:#FFFFFF;" d="M182.972,102.46l-30.257-14.126c18.639-39.923,66.285-57.236,106.213-38.605l-14.122,30.259
	C221.558,69.137,193.822,79.221,182.972,102.46z"/>
<path style="fill:#92E0D3;" d="M11.938,317.283c-29.633,63.494-2.197,138.98,61.288,168.62
	c63.486,29.648,138.981,2.204,168.622-61.289l53.665-114.946L65.605,202.328L11.938,317.283z"/>
<path style="fill:#6DB2A6;" d="M73.225,485.903c63.486,29.648,138.981,2.204,168.622-61.289l53.665-114.946L180.56,256
	L73.225,485.903z"/>
<path style="fill:#DA8228;" d="M470.103,455.94c-55.863,55.879-146.422,55.879-202.293,0
	c-55.863-55.856-55.863-146.43,0.008-202.293c55.863-55.856,146.422-55.856,202.285,0.008
	C525.966,309.511,525.966,400.085,470.103,455.94z"/>
<path style="fill:#E7C64B;" d="M470.103,455.94c-55.863,55.879-146.422,55.879-202.293,0
	c-55.863-55.856-55.863-146.43,0.008-202.293c55.863-55.856,146.422-55.856,202.285,0.008
	C525.966,309.511,525.966,400.085,470.103,455.94z"/>
<path style="fill:#DE9846;" d="M470.103,455.94c-55.863,55.879-146.422,55.879-202.293,0
	c57.001-57.001,158.135-158.127,202.293-202.286C525.966,309.511,525.966,400.085,470.103,455.94z"/>
<path style="fill:#C86407;" d="M470.102,253.655c-3.994-3.994-8.171-7.692-12.494-11.116L256.694,443.446
	c3.423,4.323,7.122,8.5,11.116,12.494c3.995,3.995,8.171,7.693,12.494,11.117l200.915-200.909
	C477.796,261.826,474.097,257.648,470.102,253.655z"/>
</svg>