<?xml version="1.0" encoding="UTF-8" standalone="no"?>
<!-- Created with Inkscape (http://www.inkscape.org/) -->

<svg
   version="1.1"
   id="svg216"
   width="371.85934"
   height="371.85934"
   viewBox="0 0 371.85934 371.85934"
   sodipodi:docname="output-onlinepngtools.png"
   xml:space="preserve"
   inkscape:export-filename="../cafd5c78/logo.svg"
   inkscape:export-xdpi="91.782944"
   inkscape:export-ydpi="91.782944"
   xmlns:inkscape="http://www.inkscape.org/namespaces/inkscape"
   xmlns:sodipodi="http://sodipodi.sourceforge.net/DTD/sodipodi-0.dtd"
   xmlns="http://www.w3.org/2000/svg"
   xmlns:svg="http://www.w3.org/2000/svg"><defs
     id="defs220" /><sodipodi:namedview
     id="namedview218"
     pagecolor="#ffffff"
     bordercolor="#000000"
     borderopacity="0.25"
     inkscape:showpageshadow="2"
     inkscape:pageopacity="0.0"
     inkscape:pagecheckerboard="0"
     inkscape:deskcolor="#d1d1d1"
     showgrid="false"
     inkscape:zoom="0.46044163"
     inkscape:cx="137.91108"
     inkscape:cy="180.26172"
     inkscape:window-width="1366"
     inkscape:window-height="707"
     inkscape:window-x="3280"
     inkscape:window-y="31"
     inkscape:window-maximized="1"
     inkscape:current-layer="g4052" /><g
     inkscape:groupmode="layer"
     id="layer1"
     inkscape:label="Circle"
     style="display:inline"
     transform="translate(-3.1648426,-4.5126209)"><circle
       style="display:inline;fill:none;stroke:#274260;stroke-width:19.2261;stroke-dasharray:none;stroke-opacity:0.94902"
       id="path283"
       cx="189.09451"
       cy="190.44229"
       r="176.31662" /></g><g
     id="g5149"
     transform="matrix(0.94366223,0,0,0.94366223,2.0525102,2.8195118)"><g
       id="g4052"
       transform="translate(4.0544957,16.54361)"
       style="display:inline"><path
         style="fill:none;stroke:#4ec4d6;stroke-width:10.1117;stroke-linejoin:round;stroke-dasharray:none;stroke-opacity:1"
         d="m 84.579764,188.30882 30.084776,1.89572 -1.23455,80.26569 -31.209474,-1.88044 z"
         id="path1625" /><path
         style="fill:none;stroke:#4ec4d6;stroke-width:10.1117;stroke-linejoin:bevel;stroke-dasharray:none;stroke-opacity:1"
         d="m 121.81212,198.09848 24.99857,1.70916 10.9728,-1.46436 c 0,0 10.89782,1.96193 20.2378,10.36761 9.33998,8.40567 10.38303,8.62177 10.38303,8.62177 0,0 29.29452,0.26004 32.78306,3.49694 3.48854,3.2369 15.23482,8.32985 5.78039,21.71847 -9.45442,13.38862 -48.25605,3.88608 -49.75361,2.01594 -1.49757,-1.87014 23.67356,5.42816 23.67356,5.42816 l 78.28909,-22.4885 c 0,0 21.03659,-2.32442 21.15319,8.40592 0.1166,10.73034 -105.01796,54.2946 -105.01796,54.2946 0,0 -3.77246,5.81078 -34.58151,-10.01226 -30.80905,-15.82304 -35.79927,-16.59364 -35.79927,-16.59364 l -9.50149,0.96885 -0.88277,-67.29665 z"
         id="path3403" /></g><g
       id="g5135"
       transform="translate(0.4310946)"><g
         id="g4073"
         transform="matrix(2.1982508,0,0,2.1157518,554.86323,44.963126)"
         style="stroke-width:0.999947;stroke-dasharray:none">
	<path
   d="m -133.29099,21.078833 c -3.83152,-3.831528 -8.90404,-5.925684 -14.31782,-5.925684 -5.41377,0 -10.5018,2.109668 -14.33333,5.941196 l -2.00108,2.001083 -2.03211,-2.032106 c -3.83153,-3.83153 -8.93506,-5.95671 -14.34884,-5.95671 -5.39827,0 -10.48629,2.109668 -14.3023,5.925685 -3.83154,3.831529 -5.9412,8.919552 -5.9257,14.333332 0,5.413779 2.1252,10.486289 5.95672,14.317819 l 29.13203,29.132028 c 0.40332,0.403317 0.94625,0.62049 1.47366,0.62049 0.52742,0 1.07035,-0.201658 1.47367,-0.604975 l 29.19408,-29.085495 c 3.83153,-3.831529 5.94119,-8.919551 5.94119,-14.333331 0.0156,-5.41378 -2.07864,-10.501803 -5.91017,-14.333332 z m -2.97835,25.70382 -27.72042,27.611832 -27.65836,-27.658368 c -3.04041,-3.040403 -4.71573,-7.073592 -4.71573,-11.370488 0,-4.296897 1.65982,-8.330086 4.70022,-11.354977 3.02489,-3.024892 7.05808,-4.700217 11.33946,-4.700217 4.2969,0 8.3456,1.675325 11.386,4.715728 l 3.50577,3.505772 c 0.82215,0.82215 2.1407,0.82215 2.96285,0 l 3.47474,-3.474747 c 3.04041,-3.040404 7.08911,-4.715728 11.37049,-4.715728 4.28139,0 8.31458,1.675324 11.35498,4.700216 3.0404,3.040403 4.70021,7.073592 4.70021,11.370489 0.0155,4.296897 -1.65981,8.330085 -4.70021,11.370488 z"
   id="path4071"
   style="fill:#4ec4d6;fill-opacity:1;stroke:#4ec4d6;stroke-width:0.999947;stroke-dasharray:none;stroke-opacity:1"
   inkscape:label="path4071" />
</g><g
         id="g4438"
         transform="matrix(0.62151977,0,0,0.62151977,-1134.8517,68.530509)"
         style="fill:#4ec4d6;fill-opacity:1"><rect
           x="2082.5"
           y="104.25"
           style="fill:#4ec4d6;fill-opacity:1"
           width="112.5"
           height="37.5"
           id="rect4420" /><rect
           x="2120"
           y="66.75"
           style="fill:#4ec4d6;fill-opacity:1"
           width="37.5"
           height="112.5"
           id="rect4422"
           inkscape:label="rect4422" /></g></g></g></svg>
